<svg xmlns="http://www.w3.org/2000/svg" version="1.1" xmlns:xlink="http://www.w3.org/1999/xlink" xmlns:svgjs="http://svgjs.dev/svgjs" width="1000" height="999" viewBox="0 0 1000 999"><g transform="matrix(1,0,0,1,-0.215743440233382,-0.21552769679306039)"><svg viewBox="0 0 343 343" data-background-color="#fafafa" preserveAspectRatio="xMidYMid meet" height="999" width="1000" xmlns="http://www.w3.org/2000/svg" xmlns:xlink="http://www.w3.org/1999/xlink"><defs></defs><g id="tight-bounds" transform="matrix(1,0,0,1,0.0740000000000407,0.07400000000001228)"><svg viewBox="0 0 342.85155851775386 342.85155851775386" height="342.85155851775386" width="342.85155851775386"><g><svg></svg></g><g><svg viewBox="0 0 342.85155851775386 342.85155851775386" height="342.85155851775386" width="342.85155851775386"><g><path d="M0 171.426c0-94.676 76.75-171.426 171.426-171.426 94.676 0 171.426 76.75 171.426 171.426 0 94.676-76.75 171.426-171.426 171.426-94.676 0-171.426-76.75-171.426-171.426zM171.426 340.071c93.14 0 168.645-75.505 168.645-168.645 0-93.14-75.505-168.645-168.645-168.645-93.14 0-168.645 75.505-168.645 168.645 0 93.14 75.505 168.645 168.645 168.645z" data-fill-palette-color="tertiary" fill="#130912" stroke="transparent"></path><ellipse rx="164.56874808852186" ry="164.56874808852186" cx="171.42577925887693" cy="171.42577925887693" fill="#130912" stroke="transparent" stroke-width="0" fill-opacity="1" data-fill-palette-color="tertiary"></ellipse></g><g transform="matrix(1,0,0,1,64.84655864529837,109.74850174115099)"><svg viewBox="0 0 213.1584412271571 123.3545550354519" height="123.3545550354519" width="213.1584412271571"><g><svg viewBox="0 0 213.1584412271571 123.3545550354519" height="123.3545550354519" width="213.1584412271571"><g><svg viewBox="0 0 213.1584412271571 123.3545550354519" height="123.3545550354519" width="213.1584412271571"><g transform="matrix(1,0,0,1,0,92.51650219959281)"><svg viewBox="0 0 213.1584412271571 30.83805283585909" height="30.83805283585909" width="213.1584412271571"><g><svg viewBox="0 0 213.1584412271571 30.83805283585909" height="30.83805283585909" width="213.1584412271571"><g><svg viewBox="0 0 213.1584412271571 30.83805283585909" height="30.83805283585909" width="213.1584412271571"><g transform="matrix(1,0,0,1,0,0)"><svg width="213.1584412271571" viewBox="4.550000190734863 -37.849998474121094 263.6800231933594 38.14999771118164" height="30.83805283585909" data-palette-color="#fafafa"><path d="M37.7-26.75Q42.7-26.75 45.63-23.85 48.55-20.95 48.55-15.25L48.55-15.25 48.55 0 43.75 0 43.75-14.7Q43.75-18.55 41.98-20.5 40.2-22.45 36.9-22.45L36.9-22.45Q33.25-22.45 31.1-20.18 28.95-17.9 28.95-13.65L28.95-13.65 28.95 0 24.15 0 24.15-14.7Q24.15-18.55 22.38-20.5 20.6-22.45 17.3-22.45L17.3-22.45Q13.65-22.45 11.5-20.18 9.35-17.9 9.35-13.65L9.35-13.65 9.35 0 4.55 0 4.55-26.5 9.15-26.5 9.15-22.55Q10.6-24.6 12.95-25.68 15.3-26.75 18.3-26.75L18.3-26.75Q21.4-26.75 23.8-25.5 26.2-24.25 27.5-21.85L27.5-21.85Q29-24.15 31.68-25.45 34.35-26.75 37.7-26.75L37.7-26.75ZM69.5-3.9Q74.25-3.9 77.15-7.1L77.15-7.1 79.75-4Q78-1.9 75.32-0.8 72.65 0.3 69.35 0.3L69.35 0.3Q65.15 0.3 61.9-1.43 58.65-3.15 56.87-6.25 55.1-9.35 55.1-13.25L55.1-13.25Q55.1-17.1 56.82-20.2 58.55-23.3 61.57-25.03 64.6-26.75 68.4-26.75L68.4-26.75Q72-26.75 74.95-25.13 77.9-23.5 79.65-20.55 81.4-17.6 81.45-13.75L81.45-13.75 60.4-9.65Q61.4-6.9 63.77-5.4 66.15-3.9 69.5-3.9L69.5-3.9ZM68.4-22.7Q65.9-22.7 63.92-21.55 61.95-20.4 60.85-18.32 59.75-16.25 59.75-13.5L59.75-13.5 59.75-13 76.7-16.2Q76.05-19.1 73.8-20.9 71.55-22.7 68.4-22.7L68.4-22.7ZM100.59-5L102.09-1.55Q101.05-0.65 99.5-0.18 97.94 0.3 96.3 0.3L96.3 0.3Q92.3 0.3 90.09-1.85 87.89-4 87.89-8L87.89-8 87.89-32.3 92.69-32.3 92.69-26.5 100.3-26.5 100.3-22.55 92.69-22.55 92.69-8.2Q92.69-6.05 93.77-4.9 94.84-3.75 96.84-3.75L96.84-3.75Q99.05-3.75 100.59-5L100.59-5ZM127.19-26.5L131.99-26.5 131.99 0 127.39 0 127.39-4.2Q125.79-2 123.34-0.85 120.89 0.3 117.94 0.3L117.94 0.3Q114.09 0.3 111.04-1.4 107.99-3.1 106.27-6.18 104.54-9.25 104.54-13.25L104.54-13.25Q104.54-17.25 106.27-20.3 107.99-23.35 111.04-25.05 114.09-26.75 117.94-26.75L117.94-26.75Q120.79-26.75 123.19-25.68 125.59-24.6 127.19-22.5L127.19-22.5 127.19-26.5ZM118.34-3.9Q120.84-3.9 122.89-5.08 124.94-6.25 126.09-8.38 127.24-10.5 127.24-13.25L127.24-13.25Q127.24-16 126.09-18.13 124.94-20.25 122.89-21.4 120.84-22.55 118.34-22.55L118.34-22.55Q115.79-22.55 113.77-21.4 111.74-20.25 110.57-18.13 109.39-16 109.39-13.25L109.39-13.25Q109.39-10.5 110.57-8.38 111.74-6.25 113.77-5.08 115.79-3.9 118.34-3.9L118.34-3.9ZM145.69-22.05Q146.94-24.35 149.39-25.55 151.84-26.75 155.34-26.75L155.34-26.75 155.34-22.1Q154.94-22.15 154.24-22.15L154.24-22.15Q150.34-22.15 148.11-19.83 145.89-17.5 145.89-13.2L145.89-13.2 145.89 0 141.09 0 141.09-26.5 145.69-26.5 145.69-22.05ZM181.19-26.5L185.99-26.5 185.99 0 181.39 0 181.39-4.2Q179.79-2 177.34-0.85 174.89 0.3 171.94 0.3L171.94 0.3Q168.09 0.3 165.04-1.4 161.99-3.1 160.26-6.18 158.54-9.25 158.54-13.25L158.54-13.25Q158.54-17.25 160.26-20.3 161.99-23.35 165.04-25.05 168.09-26.75 171.94-26.75L171.94-26.75Q174.79-26.75 177.19-25.68 179.59-24.6 181.19-22.5L181.19-22.5 181.19-26.5ZM172.34-3.9Q174.84-3.9 176.89-5.08 178.94-6.25 180.09-8.38 181.24-10.5 181.24-13.25L181.24-13.25Q181.24-16 180.09-18.13 178.94-20.25 176.89-21.4 174.84-22.55 172.34-22.55L172.34-22.55Q169.79-22.55 167.76-21.4 165.74-20.25 164.56-18.13 163.39-16 163.39-13.25L163.39-13.25Q163.39-10.5 164.56-8.38 165.74-6.25 167.76-5.08 169.79-3.9 172.34-3.9L172.34-3.9ZM215.28-37.1L220.09-37.1 220.09 0 215.49 0 215.49-4.2Q213.88-2 211.44-0.85 208.98 0.3 206.03 0.3L206.03 0.3Q202.19 0.3 199.13-1.4 196.09-3.1 194.36-6.18 192.63-9.25 192.63-13.25L192.63-13.25Q192.63-17.25 194.36-20.3 196.09-23.35 199.13-25.05 202.19-26.75 206.03-26.75L206.03-26.75Q208.88-26.75 211.28-25.68 213.69-24.6 215.28-22.5L215.28-22.5 215.28-37.1ZM206.44-3.9Q208.94-3.9 210.99-5.08 213.03-6.25 214.19-8.38 215.34-10.5 215.34-13.25L215.34-13.25Q215.34-16 214.19-18.13 213.03-20.25 210.99-21.4 208.94-22.55 206.44-22.55L206.44-22.55Q203.88-22.55 201.86-21.4 199.84-20.25 198.66-18.13 197.48-16 197.48-13.25L197.48-13.25Q197.48-10.5 198.66-8.38 199.84-6.25 201.86-5.08 203.88-3.9 206.44-3.9L206.44-3.9ZM229.18 0L229.18-26.5 233.98-26.5 233.98 0 229.18 0ZM231.58-31.6Q230.18-31.6 229.26-32.5 228.33-33.4 228.33-34.7L228.33-34.7Q228.33-36 229.26-36.93 230.18-37.85 231.58-37.85L231.58-37.85Q232.98-37.85 233.91-36.98 234.83-36.1 234.83-34.8L234.83-34.8Q234.83-33.45 233.91-32.52 232.98-31.6 231.58-31.6L231.58-31.6ZM254.48 0.3Q250.53 0.3 247.38-1.45 244.23-3.2 242.45-6.28 240.68-9.35 240.68-13.25L240.68-13.25Q240.68-17.15 242.45-20.23 244.23-23.3 247.38-25.03 250.53-26.75 254.48-26.75L254.48-26.75Q258.43-26.75 261.56-25.03 264.68-23.3 266.45-20.23 268.23-17.15 268.23-13.25L268.23-13.25Q268.23-9.35 266.45-6.28 264.68-3.2 261.56-1.45 258.43 0.3 254.48 0.3L254.48 0.3ZM254.48-3.9Q257.03-3.9 259.06-5.08 261.08-6.25 262.23-8.38 263.38-10.5 263.38-13.25L263.38-13.25Q263.38-16 262.23-18.13 261.08-20.25 259.06-21.4 257.03-22.55 254.48-22.55L254.48-22.55Q251.93-22.55 249.9-21.4 247.88-20.25 246.7-18.13 245.53-16 245.53-13.25L245.53-13.25Q245.53-10.5 246.7-8.38 247.88-6.25 249.9-5.08 251.93-3.9 254.48-3.9L254.48-3.9Z" opacity="1" transform="matrix(1,0,0,1,0,0)" fill="#fafafa" class="undefined-text-0" data-fill-palette-color="quaternary" id="text-0"></path></svg></g></svg></g></svg></g></svg></g><g transform="matrix(1,0,0,1,59.13447975776362,0)"><svg viewBox="0 0 94.88948171162987 85.23637803831454" height="85.23637803831454" width="94.88948171162987"><g><svg xmlns="http://www.w3.org/2000/svg" xmlns:xlink="http://www.w3.org/1999/xlink" version="1.1" x="0" y="0" viewBox="0 0.17299985885620117 100 89.8270034790039" enable-background="new 0 0 100 90" xml:space="preserve" width="94.88948171162987" height="85.23637803831454" class="icon-icon-0" data-fill-palette-color="quaternary" id="icon-0"><g fill="#fafafa" data-fill-palette-color="quaternary"><path d="M88.87 5.345c0 2.855-2.316 5.172-5.172 5.172S78.525 8.2 78.525 5.345s2.317-5.172 5.173-5.172S88.87 2.489 88.87 5.345zM68.181 59H54.388c-1.896 0-3.448 1.604-3.448 3.5 0 1.896 1.553 3.5 3.448 3.5h13.793c1.896 0 3.448-1.604 3.448-3.5C71.629 60.604 70.077 59 68.181 59zM54.388 45h13.793c1.896 0 3.448-1.604 3.448-3.5 0-1.896-1.552-3.5-3.448-3.5H54.388c-1.896 0-3.448 1.604-3.448 3.5C50.939 43.396 52.492 45 54.388 45zM100 76.207C100 83.824 93.824 90 86.207 90H13.793C6.175 90 0 83.824 0 76.207V27.793C0 20.175 6.175 14 13.793 14h72.414C93.824 14 100 20.175 100 27.793V76.207zM19.905 48.448c0-3.809-3.088-6.896-6.897-6.896s-6.896 3.088-6.896 6.896 3.088 6.896 6.896 6.896S19.905 52.257 19.905 48.448zM19.905 27.759c0-3.809-3.088-6.897-6.897-6.897s-6.896 3.088-6.896 6.897 3.088 6.896 6.896 6.896S19.905 31.567 19.905 27.759zM92.318 51.896c0-17.113-13.921-31.035-31.034-31.035S30.25 34.783 30.25 51.896s13.921 31.034 31.034 31.034S92.318 69.01 92.318 51.896zM47.491 48c-1.896 0-3.448 1.604-3.448 3.5s1.552 3.5 3.448 3.5h27.586c1.896 0 3.448-1.604 3.448-3.5S76.974 48 75.077 48H47.491zM85.422 51.896c0 13.309-10.829 24.138-24.138 24.138-13.308 0-24.138-10.829-24.138-24.138 0-13.308 10.83-24.138 24.138-24.138C74.593 27.759 85.422 38.588 85.422 51.896zM81.974 51.896c0-11.426-9.264-20.689-20.689-20.689s-20.689 9.264-20.689 20.689 9.264 20.689 20.689 20.689S81.974 63.322 81.974 51.896z" fill="#fafafa" data-fill-palette-color="quaternary"></path></g></svg></g></svg></g><g></g></svg></g></svg></g></svg></g></svg></g></svg><rect width="342.85155851775386" height="342.85155851775386" fill="none" stroke="none" visibility="hidden"></rect></g></svg></g></svg>