<?xml version="1.0" encoding="UTF-8" standalone="no"?>
<!-- Created with Inkscape (http://www.inkscape.org/) -->

<svg
   version="1.1"
   id="svg2"
   xml:space="preserve"
   width="500"
   height="500"
   viewBox="0 0 499.99999 500"
   sodipodi:docname="fip.svg"
   inkscape:version="1.2 (1:1.2+202205241504+da316b6974)"
   xmlns:inkscape="http://www.inkscape.org/namespaces/inkscape"
   xmlns:sodipodi="http://sodipodi.sourceforge.net/DTD/sodipodi-0.dtd"
   xmlns="http://www.w3.org/2000/svg"
   xmlns:svg="http://www.w3.org/2000/svg"><defs
     id="defs6"><clipPath
       clipPathUnits="userSpaceOnUse"
       id="clipPath18"><path
         d="M 0,720 H 1280 V 0 H 0 Z"
         id="path16" /></clipPath><clipPath
       clipPathUnits="userSpaceOnUse"
       id="clipPath40"><path
         d="m 687.732,461.852 h 54.12 v -61.248 h -54.12 z"
         id="path38" /></clipPath></defs><sodipodi:namedview
     id="namedview4"
     pagecolor="#ffffff"
     bordercolor="#666666"
     borderopacity="1.0"
     inkscape:pageshadow="2"
     inkscape:pageopacity="0.0"
     inkscape:pagecheckerboard="0"
     showgrid="false"
     inkscape:zoom="1.2537334"
     inkscape:cx="161.11878"
     inkscape:cy="242.07698"
     inkscape:window-width="1920"
     inkscape:window-height="1043"
     inkscape:window-x="1920"
     inkscape:window-y="0"
     inkscape:window-maximized="1"
     inkscape:current-layer="g8"
     inkscape:showpageshadow="0"
     inkscape:deskcolor="#d1d1d1" /><g
     id="g8"
     inkscape:groupmode="layer"
     inkscape:label="Chaine Radio France RVB_France Bleu Couleurs"
     transform="matrix(1.3333333,0,0,-1.3333333,-694.10665,639.22665)"><path
       d="M 520.58,104.41999 H 895.58001 V 479.42 H 520.58 Z"
       style="fill:#e2007a;fill-opacity:1;fill-rule:nonzero;stroke:none;stroke-width:0.157009"
       id="path838" /><path
       id="path844"
       style="fill:#ffffff;fill-opacity:1;fill-rule:nonzero;stroke:none;stroke-width:0.157009"
       d="m 693.62576,234.91164 c -14.70074,0 -19.9621,-9.61993 -19.9621,-28.49554 0,-17.96809 4.90024,-28.31498 18.8756,-28.31498 13.79323,0 20.5085,10.70801 20.5085,29.76574 0,17.24429 -6.89897,27.04478 -19.422,27.04478 z M 648.79659,132.00488 v 98.91403 c 0,7.62278 0,15.06186 -0.18056,22.68464 h 25.22819 c 0.36269,-2.53883 0.90751,-8.34659 0.90751,-11.79608 3.99273,6.89583 12.34247,13.97536 27.22377,13.97536 21.23702,0 37.39009,-17.78439 37.39009,-46.82789 0,-33.21366 -18.15023,-51.54445 -40.83958,-51.54445 -13.24684,0 -20.14581,5.08081 -23.77428,10.52902 V 132.00488 H 648.79659 M 613.3644,253.60355 h 26.13726 V 159.58977 H 613.3644 Z m 0,15.2487 v 23.23261 h 26.13726 V 268.85225 H 613.3644 M 561.95812,159.58977 v 74.41593 h -13.7948 v 19.59785 h 13.7948 v 8.17074 c 0,19.41886 9.6215,32.12559 29.94787,32.12559 4.1733,0 9.61994,-0.36426 11.97821,-1.09121 V 272.2986 c -1.45076,0.1837 -3.44792,0.36426 -5.4435,0.36426 -7.62278,0 -10.52901,-2.72254 -10.52901,-12.88729 v -6.17202 h 16.33677 V 234.0057 h -16.33677 v -74.41593 h -25.95357" /><path
       id="path848"
       style="fill:#f8a6d7;fill-opacity:1;fill-rule:nonzero;stroke:none;stroke-width:0.157009"
       d="m 825.51008,355.67188 c -23.46497,0 -42.4866,18.04817 -42.4866,40.31046 0,2.73196 0.2889,5.39954 0.83529,7.97919 h 23.99881 c -1.21682,-2.41793 -1.89824,-5.12162 -1.89824,-7.97919 0,-10.24483 8.75324,-18.54903 19.55074,-18.54903 2.40538,0 4.71027,0.41451 6.83931,1.16815 v -22.40674 c -2.22639,-0.34228 -4.51086,-0.52284 -6.83931,-0.52284 m 41.4896,31.60589 h -24.22333 c 1.45704,2.59536 2.28448,5.55812 2.28448,8.70457 0,10.24483 -8.75325,18.54903 -19.55075,18.54903 -2.0207,0 -3.96918,-0.29046 -5.80304,-0.83057 v 38.13588 h 21.03605 v -18.21617 c 15.93797,-5.8109 27.2536,-20.46925 27.2536,-37.63817 0,-2.98945 -0.34699,-5.90039 -0.99701,-8.70457" /></g></svg>
