<?xml version="1.0" encoding="UTF-8"?>
<!-- Generator: Adobe Illustrator 18.0.0, SVG Export Plug-In . SVG Version: 6.00 Build 0)  -->
<!DOCTYPE svg PUBLIC "-//W3C//DTD SVG 1.1//EN" "http://www.w3.org/Graphics/SVG/1.1/DTD/svg11.dtd">
<svg version="1.1" id="Calque_1" xmlns="http://www.w3.org/2000/svg" xmlns:xlink="http://www.w3.org/1999/xlink" x="0px" y="0px" viewBox="0 0 810.3 208.5" enable-background="new 0 0 810.3 208.5" xml:space="preserve">
<g id="Première">
	<path fill="#FA6610" d="M766.2,0H42.1C19,0,0,19,0,42.1v123.8C0,189,19,208,42.1,208h724.1c23.1,0,42.1-19,42.1-42.1V42.1   C808.1,19,789.3,0,766.2,0z"/>
	<g>
		<g>
			<path fill="#FFFFFF" d="M56.8,79.9c0-3.2,2.6-5.8,5.8-5.8c3.2,0,5.8,2.6,5.8,5.8v48.2c0,3.2-2.3,6.1-5.8,6.1     c-3.2,0-5.8-2.6-5.8-6.1V79.9z"/>
			<path fill="#FFFFFF" d="M135,79.9c0-3.2,2.6-5.8,5.8-5.8s5.8,2.6,5.8,5.8v48.2c0,3.2-2.3,6.1-5.8,6.1c-3.2,0-5.8-2.6-5.8-6.1     V79.9z"/>
			<path fill="#FFFFFF" d="M115.1,116.3c1.2-2,2.3-3.5,4.9-3.5c2.6,0,5.5,2.3,5.5,5.5c0,1.2,0,1.7-0.6,3.2     c-3.8,8.4-12.7,13.3-21.9,13.3c-14.1,0-23.9-10.4-25.1-23.9c-0.3-4.3-0.3-8.9,0-13.3C79,84,88.9,73.6,103,73.6     c9.5,0,18.5,4.9,21.9,13.3c0.6,1.4,0.6,2,0.6,3.2c0,3.2-2.9,5.5-5.5,5.5s-4-1.7-4.9-3.5c-2.3-4.6-6.6-7.5-11.8-7.5     c-8.1,0-13.3,6.1-13.8,14.1c-0.3,3.5-0.3,7.2,0,10.7c0.6,8.4,5.5,13.8,13.8,13.8C108.2,123.5,112.5,120.9,115.1,116.3"/>
		</g>
		<g>
			<path fill="#FFFFFF" d="M443.1,75.6c-2-0.6-5.5-1.2-9.5-1.2c-11.5,0-18.2,6.3-18.2,17.6v37.8c0,2.3,1.7,4,3.8,4s3.8-1.7,3.8-4     V92.3c0-7.5,3.2-10.7,10.7-10.7c2.3,0,3.8,0.3,5.2,0.6c1.2,0.3,2,0.3,3.2,0.3c2.6,0,4-1.7,4-3.5C446,77.6,444.8,76.2,443.1,75.6"/>
			<path fill="#FFFFFF" d="M700.4,75.6c-2-0.6-5.5-1.2-9.5-1.2c-11.5,0-18.2,6.3-18.2,17.6v37.8c0,2.3,1.7,4,3.8,4     c2,0,3.8-1.7,3.8-4V92.3c0-7.5,3.2-10.7,10.7-10.7c2.3,0,3.8,0.3,5.2,0.6c1.2,0.3,2,0.3,3.2,0.3c2.6,0,4-1.7,4-3.5     C703.3,77.6,702.2,76.2,700.4,75.6"/>
			<path fill="#FFFFFF" d="M600.3,74.4c-2,0-3.8,1.7-3.8,3.8v51.6c0,2,1.7,3.8,3.8,3.8s3.8-1.7,3.8-3.8V78.2     C604.1,76.2,602.7,74.4,600.3,74.4"/>
			<path fill="#FFFFFF" d="M473.7,74.4c-13.8,0-23.7,9.2-24.8,23.1c-0.3,3.5-0.3,7.8,0,12.1c0.9,15.6,10.4,24.8,25.4,24.8     c6.9,0,13.8-1.4,17.6-3.8c1.7-1.2,2-2.6,2-3.5c0-1.7-1.4-3.5-3.8-3.5c-0.6,0-1.2,0-2,0.3c-5.5,2-10.1,2.9-14.1,2.9     c-11,0-17.9-6.9-17.9-18.2v-0.6h34.3c4.6,0,6.9-2.3,6.9-6.3v-3.8C497.6,84,488.1,74.4,473.7,74.4 M473.7,81.6     c5.2,0,9.5,1.7,12.4,4.9c3.2,3.2,4.3,8.1,4,13.3c0,0.9-0.3,1.2-1.2,1.2h-32.6c0-6.6,1.4-11.5,4.9-15     C464.2,83.4,468.2,81.6,473.7,81.6"/>
			<path fill="#FFFFFF" d="M628.9,64.6c0,2,1.7,3.8,3.8,3.8h14.1c2,0,3.8-1.7,3.8-3.8c0-2-1.7-3.8-3.8-3.8h-14.1     C630.3,60.9,628.9,62.6,628.9,64.6"/>
			<path fill="#FFFFFF" d="M640.2,74.4c-13.8,0-23.7,9.2-24.5,23.1c-0.3,3.5-0.3,7.8,0,12.1c0.9,15.6,10.4,24.8,25.4,24.8     c6.9,0,13.8-1.4,17.6-3.8c1.7-1.2,2-2.6,2-3.5c0-1.7-1.4-3.5-3.8-3.5c-0.6,0-1.2,0-2,0.3c-5.5,2-10.1,2.9-14.1,2.9     c-11,0-17.9-6.9-17.9-18.2v-0.6h34.3c4.6,0,6.9-2.3,6.9-6.3v-3.8C664.1,84,654.6,74.4,640.2,74.4 M640.2,81.6     c5.2,0,9.5,1.7,12.4,4.9c3.2,3.2,4.3,8.1,4,13.3c0,0.9-0.3,1.2-1.2,1.2h-32.6c0-6.6,1.4-11.5,4.9-15     C630.6,83.4,634.7,81.6,640.2,81.6"/>
			<path fill="#FFFFFF" d="M731,74.4c-13.8,0-23.7,9.2-24.8,23.1c-0.3,3.5-0.3,7.8,0,12.1c0.9,15.6,10.4,24.8,25.4,24.8     c6.9,0,13.8-1.4,17.6-3.8c1.7-1.2,2-2.6,2-3.5c0-1.7-1.4-3.5-3.8-3.5c-0.6,0-1.2,0-2,0.3c-5.5,2-10.1,2.9-14.1,2.9     c-11,0-17.9-6.9-17.9-18.2v-0.6h34.3c4.6,0,6.9-2.3,6.9-6.3v-3.8C755,84,745.5,74.4,731,74.4 M731,81.6c5.2,0,9.5,1.7,12.4,4.9     c3.2,3.2,4.3,8.1,4,13.3c0,0.9-0.3,1.2-1.2,1.2h-32.6c0-6.6,1.4-11.5,4.9-15C721.5,83.4,725.5,81.6,731,81.6"/>
			<path fill="#FFFFFF" d="M387.4,74.4h-17c-3.5,0-6.1,2.3-6.1,6.1v49.6c0,2,1.7,3.8,3.8,3.8s3.8-1.7,3.8-3.8v-18.2h14.7     c12.1,0,19.9-7.5,19.9-18.8C406.8,82.2,398.7,74.4,387.4,74.4 M386.6,104.7h-14.7V81.6h15c7.8,0,12.1,4,12.1,11.5     C399,100.7,394.9,104.7,386.6,104.7"/>
			<path fill="#FFFFFF" d="M564.3,74.4c-8.9,0-14.7,4-18.5,6.3l0,0l0,0l0,0c-4-4.3-9.5-6.3-16.7-6.3s-14.7,2.3-19.3,5.8     c-1.7,1.2-2.3,2.3-2.3,4v45.9c0,2.3,1.4,3.8,3.8,3.8c2.3,0,3.8-1.7,3.8-3.8V85.7l0,0c0.9-0.6,4.9-3.8,14.4-3.8     c9.2,0,13.3,4.6,13.3,14.4v34c0,2.3,1.7,3.8,3.8,3.8s3.8-1.7,3.8-3.8V95.8c0-3.8-0.6-6.3-0.9-8.1l0,0l0,0c4.6-3.8,9.5-5.5,15-5.5     c9.2,0,13.8,4.6,13.8,14.4v34c0,2.3,1.7,3.8,3.8,3.8s3.8-1.7,3.8-3.8V96.1C585.6,81.6,578.1,74.4,564.3,74.4"/>
		</g>
		<g>
			<circle fill="#FFFFFF" cx="255.6" cy="103.9" r="26"/>
			<g>
				<path fill="#FFFFFF" d="M199.9,103.9c0,14.1,11.5,26,26,26V78.2C211.5,78.2,199.9,89.7,199.9,103.9z"/>
				<path fill="#FFFFFF" d="M285.3,78.2L285.3,78.2v51.6l0,0c14.1,0,26-11.5,26-26S299.7,78.2,285.3,78.2z"/>
				<path fill="#FFFFFF" d="M255.6,159.5c14.1,0,26-11.5,26-26h-51.6C229.6,148,241.2,159.5,255.6,159.5z"/>
				<path fill="#FFFFFF" d="M229.6,74.1L229.6,74.1h51.6l0,0c0-14.1-11.5-26-26-26C241.2,48.2,229.6,59.7,229.6,74.1z"/>
			</g>
			<g>
				<path fill="#FFFFFF" d="M201.1,74.1h24.5V49.6C212,49.6,201.1,60.6,201.1,74.1z"/>
				<path fill="#FFFFFF" d="M285.3,49.6L285.3,49.6v24.5h24.5C309.8,60.6,298.9,49.6,285.3,49.6z"/>
				<path fill="#FFFFFF" d="M201.1,133.9h24.5v24.5C212,158.4,201.1,147.4,201.1,133.9z"/>
				<path fill="#FFFFFF" d="M285.3,158.4L285.3,158.4v-24.5h24.5C309.8,147.4,298.9,158.4,285.3,158.4z"/>
			</g>
			<g>
				<g>
					<path fill="#FFFFFF" d="M315.3,126.1V81.6c7.5,4.6,12.7,12.7,12.7,22.2C327.7,113.4,322.8,121.7,315.3,126.1z"/>
					<path fill="#FFFFFF" d="M195.9,81.6v44.4c-7.5-4.6-12.7-12.7-12.7-22.2C183.2,94.6,188.4,86.3,195.9,81.6z"/>
				</g>
				<g>
					<path fill="#FFFFFF" d="M277.8,44.1h-44.4c4.6-7.5,12.7-12.7,22.2-12.7C264.8,31.7,273.2,36.6,277.8,44.1z"/>
					<path fill="#FFFFFF" d="M233.4,163.6h44.4c-4.6,7.5-12.7,12.7-22.2,12.7S237.7,171.1,233.4,163.6z"/>
				</g>
			</g>
		</g>
	</g>
</g>
</svg>